<svg xmlns="http://www.w3.org/2000/svg" width="23.163" height="23.07" viewBox="0 0 23.163 23.07"><defs><style>.a{fill:#f2f2f2;}</style></defs><g transform="translate(-1672.538 -30.885)"><path class="a" d="M29.6,101.839H.4a.4.4,0,0,1-.4-.4V99.83a.4.4,0,0,1,.4-.4H29.6a.4.4,0,0,1,.4.4v1.607a.4.4,0,0,1-.4.4Z" transform="translate(1744.549 -39.27) rotate(45)"/><path class="a" d="M.4,80.411a.4.4,0,0,1-.4-.4V78.4A.4.4,0,0,1,.4,78H29.6a.4.4,0,0,1,.4.4v1.607Z" transform="translate(1750.855 87.744) rotate(135)"/></g></svg>